<svg width="29" height="29" viewBox="0 0 29 29" fill="none" xmlns="http://www.w3.org/2000/svg">
<path d="M6.3894 18.6621L8.55153 16.4999C9.10347 15.948 10.0016 15.9513 10.5576 16.5072L12.5899 18.5396C12.8569 18.8066 13.0077 19.1679 13.009 19.5441C13.0104 19.9203 12.8623 20.2806 12.5972 20.5456L10.4351 22.7078C10.204 22.9355 10.074 23.2468 10.074 23.5725C10.074 23.8982 10.204 24.2114 10.4351 24.4425L11.8217 25.8291C12.4676 26.4783 13.3434 26.8457 14.2559 26.8502C15.1684 26.8548 16.0425 26.496 16.6854 25.8531L22.845 19.6935C23.3643 19.1742 23.625 18.4498 23.5569 17.7154L22.5798 9.25879C22.415 7.78258 21.2183 6.62815 19.7374 6.51697L11.4388 5.59724C10.6952 5.50037 9.95002 5.74326 9.40995 6.25851L3.25665 12.4118C1.91674 13.7517 1.92468 15.9321 3.2744 17.2818L4.6293 18.6367C5.10938 19.1168 5.88406 19.1224 6.36412 18.6493L6.3894 18.6621Z" fill="url(#paint0_linear_8_2279)"/>
<defs>
<linearGradient id="paint0_linear_8_2279" x1="21.6902" y1="7.41332" x2="7.54803" y2="21.5555" gradientUnits="userSpaceOnUse">
<stop stop-color="#D61162"/>
<stop offset="1" stop-color="#F22D4C"/>
</linearGradient>
</defs>
</svg>
