<svg width="17" height="16" viewBox="0 0 17 16" fill="none" xmlns="http://www.w3.org/2000/svg">
<path d="M16 6.50403C16.2761 6.50403 16.5 6.72789 16.5 7.00403V8.00403C16.5 8.28017 16.2761 8.50403 16 8.50403H4.28475L8.93012 12.8905C9.13039 13.0796 9.13999 13.3951 8.95159 13.596L8.2484 14.346C8.15749 14.443 8.03171 14.4998 7.89886 14.5038C7.76601 14.5078 7.63701 14.4588 7.54037 14.3676L0.656722 7.86757C0.55669 7.77311 0.5 7.64161 0.5 7.50403C0.5 7.36645 0.55669 7.23495 0.656722 7.14049L7.54037 0.640489C7.63701 0.549236 7.76601 0.500216 7.89886 0.50426C8.03171 0.508304 8.15749 0.565078 8.2484 0.662041L8.95159 1.41204C9.13999 1.61298 9.13039 1.92845 8.93012 2.11757L4.28475 6.50403H16Z" fill="white" stroke="white" stroke-linejoin="round"/>
</svg>
