<svg width="17" height="16" viewBox="0 0 17 16" fill="none" xmlns="http://www.w3.org/2000/svg">
<path d="M1 6.50403C0.723858 6.50403 0.5 6.72789 0.5 7.00403V8.00403C0.5 8.28017 0.723858 8.50403 1 8.50403H12.7152L8.06988 12.8905C7.86961 13.0796 7.86001 13.3951 8.04841 13.596L8.7516 14.346C8.84251 14.443 8.96829 14.4998 9.10114 14.5038C9.23399 14.5078 9.36299 14.4588 9.45963 14.3676L16.3433 7.86757C16.4433 7.77311 16.5 7.64161 16.5 7.50403C16.5 7.36645 16.4433 7.23495 16.3433 7.14049L9.45963 0.640489C9.36299 0.549236 9.23399 0.500216 9.10114 0.50426C8.96829 0.508304 8.84251 0.565078 8.7516 0.662041L8.04841 1.41204C7.86001 1.61298 7.86961 1.92845 8.06988 2.11757L12.7152 6.50403H1Z" fill="black" stroke="black" stroke-linejoin="round"/>
</svg>
