<svg width="22" height="23" viewBox="0 0 22 23" fill="none" xmlns="http://www.w3.org/2000/svg">
<path fill-rule="evenodd" clip-rule="evenodd" d="M10.9864 0.00402832C13.9224 0.00402832 16.3479 2.11854 16.6469 4.82293L16.7304 4.82386C18.3591 4.82386 20.3394 5.84626 21.0077 8.71387L21.894 15.1976C22.2119 17.2902 21.8142 18.9687 20.7101 20.1726C19.6115 21.3702 17.8727 22.004 15.6813 22.004H6.30431C3.89717 22.004 2.22015 21.4466 1.17665 20.3011C0.128647 19.1523 -0.221808 17.4292 0.135387 15.1806L1.00703 8.78288C1.57989 5.84945 3.67477 4.82386 5.29675 4.82386C5.43678 3.60343 6.019 2.4424 6.94266 1.57214C8.00413 0.575214 9.46774 0.00402832 10.9628 0.00402832H10.9864ZM16.7304 6.41639H5.29675C4.80139 6.41639 3.14571 6.60537 2.67058 9.03025L1.80342 15.4004C1.52148 17.1872 1.7394 18.4803 2.45266 19.2628C3.15695 20.0357 4.41724 20.4115 6.30431 20.4115H15.6813C16.8584 20.4115 18.4658 20.1896 19.4363 19.1301C20.2068 18.2903 20.4719 17.0396 20.2248 15.412L19.3498 8.98672C18.9769 7.40375 17.9929 6.41639 16.7304 6.41639ZM14.2624 9.37222C14.7274 9.37222 15.1306 9.72895 15.1306 10.1685C15.1306 10.608 14.7791 10.9647 14.314 10.9647H14.2624C13.7973 10.9647 13.4199 10.608 13.4199 10.1685C13.4199 9.72895 13.7973 9.37222 14.2624 9.37222ZM7.71366 9.37222C8.17869 9.37222 8.58194 9.72895 8.58194 10.1685C8.58194 10.608 8.22923 10.9647 7.76421 10.9647H7.71366C7.24863 10.9647 6.87122 10.608 6.87122 10.1685C6.87122 9.72895 7.24863 9.37222 7.71366 9.37222ZM10.983 1.59655H10.9662C9.90917 1.59655 8.87915 1.99893 8.13218 2.70071C7.52372 3.27324 7.12577 4.02589 6.99704 4.82337L14.9489 4.82366C14.6602 2.99944 12.9913 1.59655 10.983 1.59655Z" fill="#DF1A5A"/>
</svg>
