<svg width="17" height="17" viewBox="0 0 17 17" fill="none" xmlns="http://www.w3.org/2000/svg">
<path d="M5.1389 13.7803C5.80238 13.7803 6.34596 14.3355 6.34596 15.0213C6.34596 15.6989 5.80238 16.254 5.1389 16.254C4.46743 16.254 3.92385 15.6989 3.92385 15.0213C3.92385 14.3355 4.46743 13.7803 5.1389 13.7803ZM14.1319 13.7803C14.7954 13.7803 15.339 14.3355 15.339 15.0213C15.339 15.6989 14.7954 16.254 14.1319 16.254C13.4604 16.254 12.9168 15.6989 12.9168 15.0213C12.9168 14.3355 13.4604 13.7803 14.1319 13.7803ZM1.42043 0.254124L1.5019 0.261019L3.40841 0.554109C3.6802 0.60391 3.88004 0.831688 3.90402 1.10927L4.05591 2.93802C4.07989 3.20008 4.28773 3.39602 4.54353 3.39602H15.3391C15.8267 3.39602 16.1465 3.56747 16.4662 3.94302C16.786 4.31856 16.8419 4.85739 16.77 5.34642L16.0106 10.7021C15.8667 11.7315 15.0034 12.49 13.9882 12.49H5.26696C4.20379 12.49 3.32448 11.6581 3.23654 10.5804L2.50112 1.68075L1.29406 1.46849C0.974308 1.41134 0.750482 1.09294 0.806439 0.766375C0.862395 0.432464 1.17415 0.211218 1.5019 0.261019L1.42043 0.254124ZM12.7092 6.41591H10.4949C10.1591 6.41591 9.89536 6.68533 9.89536 7.02822C9.89536 7.36295 10.1591 7.64052 10.4949 7.64052H12.7092C13.0449 7.64052 13.3087 7.36295 13.3087 7.02822C13.3087 6.68533 13.0449 6.41591 12.7092 6.41591Z" fill="white"/>
</svg>
