<svg width="18" height="19" viewBox="0 0 18 19" fill="none" xmlns="http://www.w3.org/2000/svg">
<path fill-rule="evenodd" clip-rule="evenodd" d="M4.63839 15.6192C5.28099 15.6192 5.80389 16.1534 5.80389 16.8111C5.80389 17.4688 5.28099 18.004 4.63839 18.004C3.99579 18.004 3.47378 17.4688 3.47378 16.8111C3.47378 16.1534 3.99579 15.6192 4.63839 15.6192ZM14.7907 15.6192C15.4342 15.6192 15.9571 16.1534 15.9571 16.8111C15.9571 17.4688 15.4342 18.004 14.7907 18.004C14.1481 18.004 13.6261 17.4688 13.6261 16.8111C13.6261 16.1534 14.1481 15.6192 14.7907 15.6192ZM0.790154 0.0127673L2.66216 0.34438C2.96366 0.398727 3.19316 0.654806 3.21926 0.967995L3.43076 3.54812L4.21723 3.54847C4.34557 3.54853 4.47255 3.54859 4.59818 3.54864L6.04206 3.54935C6.15715 3.54941 6.27096 3.54947 6.38349 3.54952L7.97775 3.55042C8.0779 3.55048 8.17686 3.55054 8.27463 3.5506L9.39183 3.55133C9.48034 3.55139 9.56772 3.55145 9.65398 3.55151L10.6366 3.55225C10.7142 3.55232 10.7907 3.55238 10.8662 3.55244L11.723 3.55319C11.7904 3.55326 11.8568 3.55332 11.9222 3.55338L12.4853 3.55396C12.545 3.55402 12.6039 3.55409 12.6618 3.55415L13.3139 3.55492C13.3647 3.55499 13.4147 3.55505 13.4639 3.55512L14.0145 3.55591C14.0572 3.55597 14.0991 3.55604 14.1402 3.5561L14.4902 3.5567C14.5268 3.55677 14.5628 3.55684 14.598 3.5569L14.9878 3.55771C15.0176 3.55778 15.0468 3.55785 15.0753 3.55792L15.3152 3.55853C15.34 3.5586 15.3643 3.55867 15.3879 3.55874L15.6451 3.55957C15.6644 3.55964 15.6832 3.55971 15.7014 3.55977L15.8524 3.56041C15.8678 3.56048 15.8827 3.56055 15.8971 3.56062L16.0498 3.56147C16.0609 3.56154 16.0716 3.56161 16.082 3.56168L16.1652 3.56233C16.1734 3.5624 16.1813 3.56247 16.1889 3.56255L16.2488 3.5632C16.2546 3.56327 16.2601 3.56335 16.2654 3.56342L16.3062 3.56408C16.31 3.56415 16.3137 3.56423 16.3171 3.5643L16.3429 3.56497C16.3452 3.56505 16.3474 3.56512 16.3495 3.56519L16.3682 3.5661C16.3693 3.56617 16.3704 3.56625 16.3714 3.56632C16.3801 3.56716 16.3814 3.56731 16.3827 3.56747C16.884 3.64208 17.325 3.91013 17.6256 4.32281C17.9262 4.73456 18.0522 5.24211 17.9802 5.75058L17.1261 11.7915C16.965 12.941 15.9894 13.8078 14.8554 13.8078H5.02647C3.84117 13.8078 2.83766 12.8609 2.74136 11.6496L1.91696 1.61464L0.560653 1.37514C0.192551 1.30882 -0.0531497 0.952336 0.00985059 0.575587C0.0746508 0.198839 0.430152 -0.046186 0.790154 0.0127673ZM4.03668 4.93016L3.54416 4.92984L4.08687 11.5363C4.12647 12.0448 4.53237 12.4261 5.02827 12.4261H14.8536C15.3225 12.4261 15.723 12.0687 15.7896 11.5943L16.6446 5.55254C16.6644 5.40884 16.6293 5.26514 16.5438 5.14907C16.4592 5.03209 16.335 4.95656 16.1946 4.93629C16.1881 4.93654 16.1726 4.93678 16.1484 4.93699L16.0505 4.93756C16.0301 4.93765 16.0075 4.93773 15.983 4.9378L15.4732 4.9386C15.4302 4.93863 15.3854 4.93865 15.339 4.93868L14.1403 4.93863C14.0734 4.9386 14.0052 4.93857 13.9358 4.93854L12.5677 4.93769C12.4858 4.93763 12.4029 4.93757 12.3192 4.9375L11.5451 4.93687C11.4569 4.93679 11.3681 4.93671 11.2786 4.93664L10.4587 4.9359C10.3661 4.93581 10.273 4.93573 10.1796 4.93564L9.61474 4.93511C9.51997 4.93502 9.42493 4.93493 9.32966 4.93484L8.46772 4.93401C8.37161 4.93392 8.27545 4.93383 8.17928 4.93374L7.6027 4.93319C7.50674 4.9331 7.4109 4.93301 7.31522 4.93292L6.74353 4.93238C6.64872 4.9323 6.55419 4.93221 6.45998 4.93213L5.62252 4.93139C5.53079 4.93131 5.43955 4.93123 5.34886 4.93116L4.29053 4.93033C4.20512 4.93027 4.12049 4.93021 4.03668 4.93016ZM13.4081 6.95295C13.7807 6.95295 14.0831 7.26246 14.0831 7.64381C14.0831 8.02517 13.7807 8.33467 13.4081 8.33467H10.9133C10.5398 8.33467 10.2383 8.02517 10.2383 7.64381C10.2383 7.26246 10.5398 6.95295 10.9133 6.95295H13.4081Z" fill="black"/>
</svg>
