<svg width="22" height="23" viewBox="0 0 22 23" fill="none" xmlns="http://www.w3.org/2000/svg">
<path fill-rule="evenodd" clip-rule="evenodd" d="M11.0018 0.00402832C13.9425 0.00402832 16.7061 1.14732 18.7819 3.22409C23.0727 7.51477 23.0727 14.4953 18.7819 18.786C16.6785 20.8904 13.8463 22.004 10.9772 22.004C9.41318 22.004 7.83893 21.6734 6.36602 20.9917C5.93203 20.8177 5.52567 20.654 5.23395 20.654C4.89822 20.656 4.44683 20.8116 4.01079 20.9621C3.11619 21.2691 2.00255 21.6519 1.17857 20.831C0.357673 20.0091 0.736393 18.8986 1.04142 18.005C1.19188 17.5649 1.34644 17.1105 1.34644 16.7666C1.34644 16.4841 1.21031 16.1238 1.0015 15.6048C-0.915646 11.4646 -0.029236 6.47486 3.22264 3.22511C5.29844 1.14835 8.06105 0.00402832 11.0018 0.00402832ZM11.0028 1.53934C8.4715 1.53934 6.09375 2.52399 4.30762 4.31109C1.50919 7.10741 0.747652 11.4012 2.41095 14.9969C2.65047 15.5895 2.88179 16.1668 2.88179 16.7666C2.88179 17.3653 2.67605 17.9682 2.49488 18.5004C2.34544 18.9385 2.11923 19.5997 2.26458 19.7451C2.40686 19.8925 3.07218 19.6601 3.51129 19.5097C4.03842 19.3295 4.63619 19.1228 5.22883 19.1187C5.8225 19.1187 6.3824 19.3438 6.97504 19.5823C10.6056 21.2609 14.8995 20.4974 17.6969 17.7011C21.3879 14.0081 21.3879 8.00096 17.6969 4.31007C15.9098 2.52296 13.533 1.53934 11.0028 1.53934ZM15.0427 10.406C15.6077 10.406 16.0663 10.8635 16.0663 11.4295C16.0663 11.9955 15.6077 12.4531 15.0427 12.4531C14.4777 12.4531 14.015 11.9955 14.015 11.4295C14.015 10.8635 14.4685 10.406 15.0335 10.406H15.0427ZM10.9394 10.406C11.5044 10.406 11.963 10.8635 11.963 11.4295C11.963 11.9955 11.5044 12.4531 10.9394 12.4531C10.3744 12.4531 9.91176 11.9955 9.91176 11.4295C9.91176 10.8635 10.3642 10.406 10.9302 10.406H10.9394ZM6.83573 10.406C7.40074 10.406 7.8593 10.8635 7.8593 11.4295C7.8593 11.9955 7.40074 12.4531 6.83573 12.4531C6.27072 12.4531 5.80807 11.9955 5.80807 11.4295C5.80807 10.8635 6.26151 10.406 6.82652 10.406H6.83573Z" fill="#DF1A5A"/>
</svg>
