<svg width="18" height="16" viewBox="0 0 18 16" fill="none" xmlns="http://www.w3.org/2000/svg">
<path d="M15.119 4.20874C14.9707 3.94767 14.7577 3.73059 14.5012 3.57907C14.2447 3.42756 13.9537 3.34688 13.657 3.34506H11.5915V1.61771C11.5915 1.38864 11.502 1.16896 11.3425 1.00699C11.1831 0.845023 10.9669 0.754028 10.7415 0.754028H2.2415C1.79064 0.754028 1.35823 0.936017 1.03942 1.25996C0.72061 1.5839 0.541504 2.02326 0.541504 2.48138V11.1182C0.54181 11.4211 0.620505 11.7186 0.769696 11.9808C0.918887 12.2431 1.13333 12.4609 1.3915 12.6123C1.36107 13.414 1.64532 14.1952 2.18172 14.784C2.71812 15.3727 3.46273 15.7209 4.25175 15.7518C5.04077 15.7827 5.80957 15.4939 6.38901 14.9488C6.96845 14.4038 7.31107 13.6472 7.3415 12.8455H9.9765C10.0705 13.5681 10.4197 14.2315 10.9592 14.7119C11.4987 15.1924 12.1916 15.4573 12.909 15.4573C13.6264 15.4573 14.3193 15.1924 14.8588 14.7119C15.3983 14.2315 15.7475 13.5681 15.8415 12.8455C16.2924 12.8455 16.7248 12.6635 17.0436 12.3396C17.3624 12.0156 17.5415 11.5763 17.5415 11.1182V8.52712C17.5402 8.36956 17.4992 8.21496 17.4225 8.07801L15.119 4.20874ZM11.5915 5.07241H13.657L15.187 7.66344H11.5915V5.07241ZM4.3665 13.7092C4.11433 13.7092 3.86782 13.6332 3.65815 13.4908C3.44848 13.3485 3.28506 13.1462 3.18856 12.9094C3.09206 12.6727 3.06681 12.4122 3.116 12.1609C3.1652 11.9096 3.28663 11.6788 3.46494 11.4976C3.64325 11.3164 3.87044 11.193 4.11776 11.143C4.36509 11.0931 4.62145 11.1187 4.85443 11.2168C5.0874 11.3148 5.28653 11.4809 5.42663 11.6939C5.56673 11.907 5.6415 12.1574 5.6415 12.4137C5.6415 12.7573 5.50717 13.0868 5.26807 13.3297C5.02896 13.5727 4.70465 13.7092 4.3665 13.7092ZM12.8665 13.7092C12.6143 13.7092 12.3678 13.6332 12.1582 13.4908C11.9485 13.3485 11.7851 13.1462 11.6886 12.9094C11.5921 12.6727 11.5668 12.4122 11.616 12.1609C11.6652 11.9096 11.7866 11.6788 11.9649 11.4976C12.1433 11.3164 12.3704 11.193 12.6178 11.143C12.8651 11.0931 13.1214 11.1187 13.3544 11.2168C13.5874 11.3148 13.7865 11.4809 13.9266 11.6939C14.0667 11.907 14.1415 12.1574 14.1415 12.4137C14.1415 12.7573 14.0072 13.0868 13.7681 13.3297C13.529 13.5727 13.2047 13.7092 12.8665 13.7092Z" fill="white"/>
</svg>
