<svg width="17" height="16" viewBox="0 0 17 16" fill="none" xmlns="http://www.w3.org/2000/svg">
<path fill-rule="evenodd" clip-rule="evenodd" d="M8.00387 0.816632C9.27542 0.0127229 10.9646 -0.209369 12.4238 0.258275C15.598 1.28193 16.5833 4.74234 15.702 7.4958C14.3421 11.8203 8.53407 15.0461 8.28774 15.1814C8.20015 15.2299 8.10318 15.2542 8.00621 15.2542C7.90924 15.2542 7.81306 15.2307 7.72547 15.183C7.4807 15.0493 1.71492 11.8712 0.309643 7.49658C0.308861 7.49658 0.308861 7.4958 0.308861 7.4958C-0.573249 4.74155 0.408959 1.28037 3.58002 0.258275C5.06897 -0.223445 6.69165 -0.0115195 8.00387 0.816632ZM3.93975 1.37499C1.37396 2.20236 0.729584 4.96208 1.42636 7.13842C2.52274 10.5496 6.85431 13.3077 8.00543 13.9904C9.16047 13.3007 13.5233 10.512 14.5845 7.14155C15.2813 4.96286 14.6346 2.20314 12.0649 1.37499C10.8199 0.975381 9.3677 1.21859 8.36516 1.99434C8.15558 2.15544 7.86467 2.15857 7.65353 1.99904C6.59155 1.2006 5.20426 0.966778 3.93975 1.37499ZM11.3141 2.92799C12.38 3.27286 13.1268 4.21674 13.2183 5.33268C13.2441 5.65565 13.0041 5.93874 12.6811 5.96454C12.6647 5.96611 12.649 5.96689 12.6326 5.96689C12.33 5.96689 12.0735 5.73463 12.0484 5.42808C11.9968 4.78527 11.5667 4.24255 10.9544 4.0447C10.6455 3.9446 10.4766 3.61381 10.5759 3.30648C10.6768 2.99837 11.0045 2.83102 11.3141 2.92799Z" fill="white"/>
</svg>
