<svg width="24" height="25" viewBox="0 0 24 25" fill="none" xmlns="http://www.w3.org/2000/svg">
<path d="M9.13478 20.7774V17.7196C9.13478 16.9391 9.77217 16.3063 10.5584 16.3063H13.4326C13.8102 16.3063 14.1723 16.4552 14.4393 16.7203C14.7063 16.9853 14.8563 17.3448 14.8563 17.7196V20.7774C14.8539 21.1019 14.9821 21.4139 15.2124 21.6442C15.4427 21.8745 15.7561 22.004 16.0829 22.004H18.0438C18.9596 22.0064 19.8388 21.6469 20.4872 21.0048C21.1356 20.3628 21.5 19.491 21.5 18.5819V9.87089C21.5 9.13649 21.1721 8.43987 20.6046 7.9687L13.934 2.6799C12.7737 1.75259 11.1111 1.78253 9.98539 2.75101L3.46701 7.9687C2.87274 8.42598 2.51755 9.12466 2.5 9.87089V18.573C2.5 20.4679 4.04738 22.004 5.95617 22.004H7.87229C8.55123 22.004 9.103 21.4602 9.10792 20.7863L9.13478 20.7774Z" fill="url(#paint0_linear_8_1439)"/>
<defs>
<linearGradient id="paint0_linear_8_1439" x1="12" y1="2.00403" x2="12" y2="22.004" gradientUnits="userSpaceOnUse">
<stop stop-color="#D61162"/>
<stop offset="1" stop-color="#F22D4C"/>
</linearGradient>
</defs>
</svg>
