<svg width="22" height="23" viewBox="0 0 22 23" fill="none" xmlns="http://www.w3.org/2000/svg">
<path fill-rule="evenodd" clip-rule="evenodd" d="M12.5743 14.6241C13.8664 14.6241 14.9181 15.6194 14.9181 16.843V19.9897C14.9181 20.2526 15.1392 20.4634 15.4225 20.4695H17.468C19.0799 20.4695 20.3902 19.2358 20.3902 17.7197V8.79497C20.3827 8.27324 20.122 7.7822 19.6744 7.45586L12.599 2.07689C11.6493 1.35977 10.3207 1.35977 9.36771 2.07894L2.34059 7.45381C1.8759 7.79038 1.61512 8.28143 1.60976 8.81237V17.7197C1.60976 19.2358 2.9201 20.4695 4.532 20.4695H6.59678C6.88761 20.4695 7.12371 20.2496 7.12371 19.9795C7.12371 19.9202 7.13122 19.8608 7.1441 19.8046V16.843C7.1441 15.6266 8.18937 14.6322 9.47181 14.6241H12.5743ZM17.468 22.004H15.4032C14.2206 21.9774 13.3084 21.0925 13.3084 19.9897V16.843C13.3084 16.4655 12.9789 16.1586 12.5743 16.1586H9.47717C9.08117 16.1606 8.75385 16.4685 8.75385 16.843V19.9795C8.75385 20.0562 8.74312 20.1299 8.72059 20.1994C8.60468 21.2122 7.69678 22.004 6.59678 22.004H4.532C2.03259 22.004 0 20.0818 0 17.7197V8.8052C0.0107317 7.78834 0.502244 6.8574 1.35112 6.24462L8.36429 0.878954C9.90859 -0.287272 12.0603 -0.287272 13.6014 0.876908L20.665 6.24769C21.4945 6.85024 21.986 7.77913 22 8.78372V17.7197C22 20.0818 19.9674 22.004 17.468 22.004Z" fill="#DC175D"/>
</svg>
