<svg width="14" height="14" viewBox="0 0 14 14" fill="none" xmlns="http://www.w3.org/2000/svg">
<path d="M12.5 0.504028H1.5C0.947715 0.504028 0.5 0.951744 0.5 1.50403C0.5 2.05631 0.947716 2.50403 1.5 2.50403H12.5C13.0523 2.50403 13.5 2.05631 13.5 1.50403C13.5 0.951743 13.0523 0.504028 12.5 0.504028ZM1.5 7.50403H12.5C13.0523 7.50403 13.5 7.05631 13.5 6.50403C13.5 5.95174 13.0523 5.50403 12.5 5.50403H1.5C0.947715 5.50403 0.5 5.95174 0.5 6.50403C0.5 7.05631 0.947716 7.50403 1.5 7.50403ZM12.5 10.504H1.5C0.947715 10.504 0.5 10.9517 0.5 11.504C0.5 12.0563 0.947716 12.504 1.5 12.504H12.5C13.0523 12.504 13.5 12.0563 13.5 11.504C13.5 10.9517 13.0523 10.504 12.5 10.504Z" fill="black" stroke="black" stroke-linejoin="round"/>
</svg>
