<svg width="18" height="19" viewBox="0 0 18 19" fill="none" xmlns="http://www.w3.org/2000/svg">
<path d="M7.47239 14.425C7.84732 14.3456 10.132 14.3456 10.5069 14.425C10.8274 14.499 11.174 14.672 11.174 15.0497C11.1554 15.4092 10.9444 15.728 10.653 15.9304C10.2751 16.225 9.83156 16.4116 9.36793 16.4788C9.11151 16.5121 8.85957 16.5128 8.6121 16.4788C8.14771 16.4116 7.7042 16.225 7.32703 15.9297C7.03484 15.728 6.82389 15.4092 6.80526 15.0497C6.80526 14.672 7.15187 14.499 7.47239 14.425ZM9.03392 1.50403C10.594 1.50403 12.1877 2.24429 13.1343 3.47253C13.7485 4.2634 14.0303 5.05352 14.0303 6.28175V6.60128C14.0303 7.54322 14.2793 8.09842 14.8271 8.73822C15.2423 9.20957 15.375 9.81463 15.375 10.471C15.375 11.1267 15.1596 11.7491 14.728 12.2545C14.163 12.8603 13.3662 13.247 12.5529 13.3143C11.3745 13.4147 10.1952 13.4993 9.00037 13.4993C7.80476 13.4993 6.62629 13.4487 5.44781 13.3143C4.63384 13.247 3.83701 12.8603 3.27275 12.2545C2.84116 11.7491 2.625 11.1267 2.625 10.471C2.625 9.81463 2.75843 9.20957 3.17287 8.73822C3.73788 8.09842 3.97044 7.54322 3.97044 6.60128V6.28175C3.97044 5.02028 4.285 4.19542 4.93275 3.38793C5.8958 2.2103 7.43951 1.50403 8.96683 1.50403H9.03392Z" fill="black"/>
</svg>
