<svg width="22" height="23" viewBox="0 0 22 23" fill="none" xmlns="http://www.w3.org/2000/svg">
<path d="M17.1828 17.2237C17.608 16.8014 18.2895 16.8014 18.7147 17.2237L21.5248 19.4921H21.5736C22.1421 20.0667 22.1421 20.9984 21.5736 21.573C21.0051 22.1477 20.0833 22.1477 19.5148 21.573L17.1828 18.9003L17.0943 18.8005C16.9294 18.5918 16.8384 18.3317 16.8384 18.062C16.8384 17.7474 16.9623 17.4458 17.1828 17.2237ZM9.4354 0.00402832C11.9378 0.00402832 14.3378 1.00881 16.1072 2.79733C17.8767 4.58585 18.8708 7.0116 18.8708 9.54095C18.8708 14.808 14.6464 19.0779 9.4354 19.0779C4.22437 19.0779 0 14.808 0 9.54095C0 4.27385 4.22437 0.00402832 9.4354 0.00402832Z" fill="#D71762"/>
</svg>
