<svg width="22" height="23" viewBox="0 0 22 23" fill="none" xmlns="http://www.w3.org/2000/svg">
<path fill-rule="evenodd" clip-rule="evenodd" d="M10.573 0.00402832C16.4028 0.00402832 21.1449 4.64149 21.1449 10.3428C21.1449 13.0326 20.0894 15.4859 18.362 17.3271L21.7609 20.644C22.079 20.9551 22.0801 21.4583 21.762 21.7694C21.6035 21.9265 21.3939 22.004 21.1855 22.004C20.9781 22.004 20.7697 21.9265 20.6101 21.7715L17.1702 18.4169C15.3607 19.8341 13.0663 20.6825 10.573 20.6825C4.74314 20.6825 0 16.044 0 10.3428C0 4.64149 4.74314 0.00402832 10.573 0.00402832ZM10.573 1.59656C5.64096 1.59656 1.62845 5.5195 1.62845 10.3428C1.62845 15.166 5.64096 19.09 10.573 19.09C15.5039 19.09 19.5165 15.166 19.5165 10.3428C19.5165 5.5195 15.5039 1.59656 10.573 1.59656Z" fill="#DC175D"/>
</svg>
