<svg width="8" height="9" viewBox="0 0 8 9" fill="none" xmlns="http://www.w3.org/2000/svg">
<path d="M7.74143 2.82106L5.34319 2.45607L4.27111 0.180096C4.24183 0.117781 4.19365 0.0673359 4.13415 0.0366731C3.98491 -0.0404786 3.80355 0.0238145 3.72893 0.180096L2.65685 2.45607L0.258607 2.82106C0.192487 2.83095 0.132035 2.86359 0.0857515 2.91304C0.0297973 2.97327 -0.0010361 3.05429 2.65856e-05 3.13831C0.00108927 3.22233 0.033961 3.30247 0.0914189 3.36112L1.82658 5.13264L1.41664 7.63413C1.40703 7.69232 1.41318 7.75217 1.43439 7.80689C1.4556 7.8616 1.49104 7.909 1.53666 7.9437C1.58229 7.97841 1.6363 7.99903 1.69255 8.00323C1.7488 8.00743 1.80505 7.99504 1.85492 7.96747L4.00002 6.78645L6.14512 7.96747C6.20368 8.00011 6.27169 8.01099 6.33687 7.99912C6.50122 7.96944 6.61173 7.80624 6.5834 7.63413L6.17346 5.13264L7.90862 3.36112C7.95585 3.31265 7.98702 3.24935 7.99646 3.18011C8.02197 3.00701 7.90673 2.84677 7.74143 2.82106Z" fill="#F4A703"/>
<path d="M7.74143 2.82106L5.34319 2.45607L4.27111 0.180096C4.24183 0.117781 4.19365 0.0673359 4.13415 0.0366731C3.98491 -0.0404786 3.80355 0.0238145 3.72893 0.180096L2.65685 2.45607L0.258607 2.82106C0.192487 2.83095 0.132035 2.86359 0.0857515 2.91304C0.0297973 2.97327 -0.0010361 3.05429 2.65856e-05 3.13831C0.00108927 3.22233 0.033961 3.30247 0.0914189 3.36112L1.82658 5.13264L1.41664 7.63413C1.40703 7.69232 1.41318 7.75217 1.43439 7.80689C1.4556 7.8616 1.49104 7.909 1.53666 7.9437C1.58229 7.97841 1.6363 7.99903 1.69255 8.00323C1.7488 8.00743 1.80505 7.99504 1.85492 7.96747L4.00002 6.78645L6.14512 7.96747C6.20368 8.00011 6.27169 8.01099 6.33687 7.99912C6.50122 7.96944 6.61173 7.80624 6.5834 7.63413L6.17346 5.13264L7.90862 3.36112C7.95585 3.31265 7.98702 3.24935 7.99646 3.18011C8.02197 3.00701 7.90673 2.84677 7.74143 2.82106Z" fill="#F4A703"/>
<path d="M7.74143 2.82106L5.34319 2.45607L4.27111 0.180096C4.24183 0.117781 4.19365 0.0673359 4.13415 0.0366731C3.98491 -0.0404786 3.80355 0.0238145 3.72893 0.180096L2.65685 2.45607L0.258607 2.82106C0.192487 2.83095 0.132035 2.86359 0.0857515 2.91304C0.0297973 2.97327 -0.0010361 3.05429 2.65856e-05 3.13831C0.00108927 3.22233 0.033961 3.30247 0.0914189 3.36112L1.82658 5.13264L1.41664 7.63413C1.40703 7.69232 1.41318 7.75217 1.43439 7.80689C1.4556 7.8616 1.49104 7.909 1.53666 7.9437C1.58229 7.97841 1.6363 7.99903 1.69255 8.00323C1.7488 8.00743 1.80505 7.99504 1.85492 7.96747L4.00002 6.78645L6.14512 7.96747C6.20368 8.00011 6.27169 8.01099 6.33687 7.99912C6.50122 7.96944 6.61173 7.80624 6.5834 7.63413L6.17346 5.13264L7.90862 3.36112C7.95585 3.31265 7.98702 3.24935 7.99646 3.18011C8.02197 3.00701 7.90673 2.84677 7.74143 2.82106Z" fill="#F4A703"/>
</svg>
